<svg width="353" height="488" viewBox="0 0 353 488" fill="none" xmlns="http://www.w3.org/2000/svg">
<path d="M176.478 369.149C176.478 302.517 176.478 356.428 176.478 320.351C221.303 238.914 324.885 267.384 337 320.351C337 375.297 337 421.471 337 455.428C337 489.386 337 473.822 337 473.822C337 473.822 106.321 473.822 16.3118 473.822C122.567 435.781 176.478 459.125 176.478 404.888C176.478 384.898 176.478 405.493 176.478 369.149Z" fill="#fefbf5"/>
<path d="M8.36082 471.854V479.805H16.3118H337H344.951V471.854V169.486C344.951 80.003 269.272 8.04906 176.656 8.04906C84.04 8.04906 8.36082 80.003 8.36082 169.486V471.854Z" stroke="#fefbf5" stroke-width="15.9019"/>
<path d="M88.2246 43.7662C108.778 37.6861 128.966 45.5886 144.733 62.2162C160.506 78.85 171.408 103.861 172.889 130.57L174.484 431.091L20.4029 471.395V175.539C20.403 145.759 25.188 116.256 36.1339 92.4656C47.0488 68.7429 63.948 50.9479 88.2246 43.7662Z" stroke="#fefbf5" stroke-width="8.89462"/>
<path d="M90.1249 59.9128C107.213 54.3057 124.595 61.1828 137.984 76.2752C151.374 91.3695 160.423 114.398 160.423 139.902V419.188L33.87 451.843V180.982C33.8701 153.729 37.8163 126.653 46.8941 104.768C55.9667 82.897 70.022 66.509 90.1249 59.9128Z" stroke="#fefbf5" stroke-width="5.96321"/>
<ellipse cx="143.34" cy="229.801" rx="8.61352" ry="16.3143" transform="rotate(9.40754 143.34 229.801)" fill="#fefbf5"/>
<rect x="250.022" y="123.338" width="16.1003" height="159.152" fill="#fefbf5"/>
<rect x="205.68" y="163.979" width="104.687" height="14.3718" fill="#fefbf5"/>
</svg>
